<svg width="400" height="250" xmlns="http://www.w3.org/2000/svg">
  <defs>
    <linearGradient id="gradient2" x1="0%" y1="0%" x2="100%" y2="100%">
      <stop offset="0%" style="stop-color:#7c3aed;stop-opacity:0.8" />
      <stop offset="100%" style="stop-color:#0f172a;stop-opacity:1" />
    </linearGradient>
  </defs>
  <rect width="100%" height="100%" fill="url(#gradient2)"/>
  <rect x="30" y="30" width="340" height="40" fill="rgba(255,255,255,0.1)" rx="8"/>
  <rect x="50" y="40" width="100" height="6" fill="rgba(124,58,237,0.8)" rx="3"/>
  <rect x="50" y="52" width="80" height="6" fill="rgba(255,255,255,0.3)" rx="3"/>
  <rect x="30" y="90" width="100" height="80" fill="rgba(255,255,255,0.08)" rx="6"/>
  <rect x="150" y="90" width="100" height="80" fill="rgba(255,255,255,0.08)" rx="6"/>
  <rect x="270" y="90" width="100" height="80" fill="rgba(255,255,255,0.08)" rx="6"/>
  <rect x="40" y="100" width="60" height="4" fill="rgba(124,58,237,0.6)" rx="2"/>
  <rect x="40" y="110" width="80" height="4" fill="rgba(255,255,255,0.3)" rx="2"/>
  <rect x="160" y="100" width="50" height="4" fill="rgba(124,58,237,0.6)" rx="2"/>
  <rect x="160" y="110" width="70" height="4" fill="rgba(255,255,255,0.3)" rx="2"/>
  <rect x="280" y="100" width="55" height="4" fill="rgba(124,58,237,0.6)" rx="2"/>
  <rect x="280" y="110" width="65" height="4" fill="rgba(255,255,255,0.3)" rx="2"/>
  <text x="200" y="230" font-family="Inter, sans-serif" font-size="14" fill="rgba(255,255,255,0.6)" text-anchor="middle">Task Management App</text>
</svg>
