<svg width="400" height="250" xmlns="http://www.w3.org/2000/svg">
  <defs>
    <linearGradient id="gradient3" x1="0%" y1="0%" x2="100%" y2="100%">
      <stop offset="0%" style="stop-color:#06b6d4;stop-opacity:0.8" />
      <stop offset="100%" style="stop-color:#0f172a;stop-opacity:1" />
    </linearGradient>
  </defs>
  <rect width="100%" height="100%" fill="url(#gradient3)"/>
  <circle cx="100" cy="80" r="40" fill="rgba(255,255,255,0.1)" stroke="rgba(6,182,212,0.6)" stroke-width="3"/>
  <circle cx="100" cy="80" r="25" fill="rgba(6,182,212,0.3)"/>
  <text x="95" y="85" font-family="Inter, sans-serif" font-size="16" fill="white" font-weight="bold">23°</text>
  <rect x="170" y="50" width="180" height="20" fill="rgba(255,255,255,0.1)" rx="10"/>
  <rect x="180" y="55" width="120" height="6" fill="rgba(6,182,212,0.8)" rx="3"/>
  <rect x="180" y="64" width="80" height="4" fill="rgba(255,255,255,0.4)" rx="2"/>
  <rect x="30" y="140" width="60" height="80" fill="rgba(255,255,255,0.08)" rx="6"/>
  <rect x="110" y="140" width="60" height="80" fill="rgba(255,255,255,0.08)" rx="6"/>
  <rect x="190" y="140" width="60" height="80" fill="rgba(255,255,255,0.08)" rx="6"/>
  <rect x="270" y="140" width="60" height="80" fill="rgba(255,255,255,0.08)" rx="6"/>
  <circle cx="60" cy="160" r="8" fill="rgba(6,182,212,0.6)"/>
  <circle cx="140" cy="160" r="8" fill="rgba(6,182,212,0.6)"/>
  <circle cx="220" cy="160" r="8" fill="rgba(6,182,212,0.6)"/>
  <circle cx="300" cy="160" r="8" fill="rgba(6,182,212,0.6)"/>
  <text x="200" y="240" font-family="Inter, sans-serif" font-size="14" fill="rgba(255,255,255,0.6)" text-anchor="middle">Weather Dashboard</text>
</svg>
